<?xml version="1.0" standalone="no"?>
 <!DOCTYPE svg PUBLIC "-//W3C//DTD SVG 1.1//EN" 
 "http://www.w3.org/Graphics/SVG/1.1/DTD/svg11.dtd"> 
<svg
  xmlns:svg="http://www.w3.org/2000/svg"
  xmlns="http://www.w3.org/2000/svg"
  xmlns:xlink="http://www.w3.org/1999/xlink"
  version="1.1"
  width="119.9896mm" height="99.9998mm" viewBox="0.0000 0.0000 119.9896 99.9998">
<title>SVG Image created as Final_Project-F_Cu.svg date 2025/06/01 15:29:01 </title>
  <desc>Image generated by PCBNEW </desc>
<g style="fill:#000000; fill-opacity:1.0000;stroke:#000000; stroke-opacity:1.0000;
stroke-linecap:round; stroke-linejoin:round;"
 transform="translate(0 0) scale(1 1)">
</g>
<g style="fill:#000000; fill-opacity:1.0000; 
stroke:#000000; stroke-width:0.0212; stroke-opacity:1; 
stroke-linecap:round; stroke-linejoin:round;">
<rect x="9.775000" y="12.975000" width="101.250000" height="62.550000" rx="0.000000" />
</g>
<g style="fill:none; 
stroke:#FFFFFF; stroke-width:0.7500; stroke-opacity:1; 
stroke-linecap:round; stroke-linejoin:round;">
<g transform="rotate(-90.000000 20.3000 53.0000)">
<text x="20.3000" y="53.0000"
textLength="20.5071" font-size="4.0000" lengthAdjust="spacingAndGlyphs"
text-anchor="start" opacity="0" stroke-opacity="0">Line_Bot</text>
</g>
<g class="stroked-text"><desc>Line_Bot</desc>
<path d="M19.8939 50.3637
L19.8939 51.7923
" />
<path d="M19.8939 51.7923
L16.8939 51.7923
" />
<path d="M19.8939 49.3637
L17.8939 49.3637
" />
<path d="M16.8939 49.3637
L17.0367 49.5066
" />
<path d="M17.0367 49.5066
L17.1796 49.3637
" />
<path d="M17.1796 49.3637
L17.0367 49.2209
" />
<path d="M17.0367 49.2209
L16.8939 49.3637
" />
<path d="M16.8939 49.3637
L17.1796 49.3637
" />
<path d="M17.8939 47.9352
L19.8939 47.9352
" />
<path d="M18.1796 47.9352
L18.0367 47.7923
" />
<path d="M18.0367 47.7923
L17.8939 47.5066
" />
<path d="M17.8939 47.5066
L17.8939 47.0780
" />
<path d="M17.8939 47.0780
L18.0367 46.7923
" />
<path d="M18.0367 46.7923
L18.3224 46.6494
" />
<path d="M18.3224 46.6494
L19.8939 46.6494
" />
<path d="M19.7510 44.0780
L19.8939 44.3637
" />
<path d="M19.8939 44.3637
L19.8939 44.9352
" />
<path d="M19.8939 44.9352
L19.7510 45.2209
" />
<path d="M19.7510 45.2209
L19.4653 45.3637
" />
<path d="M19.4653 45.3637
L18.3224 45.3637
" />
<path d="M18.3224 45.3637
L18.0367 45.2209
" />
<path d="M18.0367 45.2209
L17.8939 44.9352
" />
<path d="M17.8939 44.9352
L17.8939 44.3637
" />
<path d="M17.8939 44.3637
L18.0367 44.0780
" />
<path d="M18.0367 44.0780
L18.3224 43.9352
" />
<path d="M18.3224 43.9352
L18.6081 43.9352
" />
<path d="M18.6081 43.9352
L18.8939 45.3637
" />
<path d="M20.1796 43.3637
L20.1796 41.0780
" />
<path d="M18.3224 39.3637
L18.4653 38.9352
" />
<path d="M18.4653 38.9352
L18.6081 38.7923
" />
<path d="M18.6081 38.7923
L18.8939 38.6494
" />
<path d="M18.8939 38.6494
L19.3224 38.6494
" />
<path d="M19.3224 38.6494
L19.6081 38.7923
" />
<path d="M19.6081 38.7923
L19.7510 38.9352
" />
<path d="M19.7510 38.9352
L19.8939 39.2209
" />
<path d="M19.8939 39.2209
L19.8939 40.3637
" />
<path d="M19.8939 40.3637
L16.8939 40.3637
" />
<path d="M16.8939 40.3637
L16.8939 39.3637
" />
<path d="M16.8939 39.3637
L17.0367 39.0780
" />
<path d="M17.0367 39.0780
L17.1796 38.9352
" />
<path d="M17.1796 38.9352
L17.4653 38.7923
" />
<path d="M17.4653 38.7923
L17.7510 38.7923
" />
<path d="M17.7510 38.7923
L18.0367 38.9352
" />
<path d="M18.0367 38.9352
L18.1796 39.0780
" />
<path d="M18.1796 39.0780
L18.3224 39.3637
" />
<path d="M18.3224 39.3637
L18.3224 40.3637
" />
<path d="M19.8939 36.9352
L19.7510 37.2209
" />
<path d="M19.7510 37.2209
L19.6081 37.3637
" />
<path d="M19.6081 37.3637
L19.3224 37.5066
" />
<path d="M19.3224 37.5066
L18.4653 37.5066
" />
<path d="M18.4653 37.5066
L18.1796 37.3637
" />
<path d="M18.1796 37.3637
L18.0367 37.2209
" />
<path d="M18.0367 37.2209
L17.8939 36.9352
" />
<path d="M17.8939 36.9352
L17.8939 36.5066
" />
<path d="M17.8939 36.5066
L18.0367 36.2209
" />
<path d="M18.0367 36.2209
L18.1796 36.0780
" />
<path d="M18.1796 36.0780
L18.4653 35.9352
" />
<path d="M18.4653 35.9352
L19.3224 35.9352
" />
<path d="M19.3224 35.9352
L19.6081 36.0780
" />
<path d="M19.6081 36.0780
L19.7510 36.2209
" />
<path d="M19.7510 36.2209
L19.8939 36.5066
" />
<path d="M19.8939 36.5066
L19.8939 36.9352
" />
<path d="M17.8939 35.0780
L17.8939 33.9352
" />
<path d="M16.8939 34.6494
L19.4653 34.6494
" />
<path d="M19.4653 34.6494
L19.7510 34.5066
" />
<path d="M19.7510 34.5066
L19.8939 34.2209
" />
<path d="M19.8939 34.2209
L19.8939 33.9352
" />
</g><path style="fill:#FFFFFF; fill-opacity:1.0000; stroke:none;fill-rule:evenodd;"
d="M 31.3550,37.2600
31.3550,36.2600
33.2550,36.2600
33.2550,37.2600
Z" /> 
<path style="fill:#FFFFFF; fill-opacity:1.0000; stroke:none;fill-rule:evenodd;"
d="M 34.6550,39.8000
34.6550,38.8000
36.5550,38.8000
36.5550,39.8000
Z" /> 
<path style="fill:#FFFFFF; fill-opacity:1.0000; stroke:none;fill-rule:evenodd;"
d="M 31.3550,42.3400
31.3550,41.3400
33.2550,41.3400
33.2550,42.3400
Z" /> 
<path style="fill:#FFFFFF; fill-opacity:1.0000; stroke:none;fill-rule:evenodd;"
d="M 34.6550,44.8800
34.6550,43.8800
36.5550,43.8800
36.5550,44.8800
Z" /> 
<path style="fill:#FFFFFF; fill-opacity:1.0000; stroke:none;fill-rule:evenodd;"
d="M 31.3550,47.4200
31.3550,46.4200
33.2550,46.4200
33.2550,47.4200
Z" /> 
<path style="fill:#FFFFFF; fill-opacity:1.0000; stroke:none;fill-rule:evenodd;"
d="M 34.6550,49.9600
34.6550,48.9600
36.5550,48.9600
36.5550,49.9600
Z" /> 
<path style="fill:#FFFFFF; fill-opacity:1.0000; stroke:none;fill-rule:evenodd;"
d="M 31.3550,52.5000
31.3550,51.5000
33.2550,51.5000
33.2550,52.5000
Z" /> 
<path style="fill:#FFFFFF; fill-opacity:1.0000; stroke:none;fill-rule:evenodd;"
d="M 33.4000,26.7700
33.4000,27.7700
30.8900,27.7700
30.8900,26.7700
Z" /> 
<path style="fill:#FFFFFF; fill-opacity:1.0000; stroke:none;fill-rule:evenodd;"
d="M 36.7100,24.2300
36.7100,25.2300
34.2000,25.2300
34.2000,24.2300
Z" /> 
<path style="fill:#FFFFFF; fill-opacity:1.0000; stroke:none;fill-rule:evenodd;"
d="M 84.7350,46.7300
84.7350,45.7300
87.2450,45.7300
87.2450,46.7300
Z" /> 
<path style="fill:#FFFFFF; fill-opacity:1.0000; stroke:none;fill-rule:evenodd;"
d="M 81.4250,44.1900
81.4250,43.1900
83.9350,43.1900
83.9350,44.1900
Z" /> 
<path style="fill:#FFFFFF; fill-opacity:1.0000; stroke:none;fill-rule:evenodd;"
d="M 84.7350,41.6500
84.7350,40.6500
87.2450,40.6500
87.2450,41.6500
Z" /> 
<path style="fill:#FFFFFF; fill-opacity:1.0000; stroke:none;fill-rule:evenodd;"
d="M 81.4250,39.1100
81.4250,38.1100
83.9350,38.1100
83.9350,39.1100
Z" /> 
<path style="fill:#FFFFFF; fill-opacity:1.0000; stroke:none;fill-rule:evenodd;"
d="M 89.7000,62.8000
89.7000,61.2000
90.9000,61.2000
90.9000,62.8000
Z" /> 
<path style="fill:#FFFFFF; fill-opacity:1.0000; stroke:none;fill-rule:evenodd;"
d="M 92.7000,62.8000
92.7000,61.2000
93.9000,61.2000
93.9000,62.8000
Z" /> 
<path style="fill:#FFFFFF; fill-opacity:1.0000; stroke:none;fill-rule:evenodd;"
d="M 73.2000,62.8000
73.2000,61.2000
74.4000,61.2000
74.4000,62.8000
Z" /> 
<path style="fill:#FFFFFF; fill-opacity:1.0000; stroke:none;fill-rule:evenodd;"
d="M 76.2000,62.8000
76.2000,61.2000
77.4000,61.2000
77.4000,62.8000
Z" /> 
<path style="fill:#FFFFFF; fill-opacity:1.0000; stroke:none;fill-rule:evenodd;"
d="M 57.2000,63.3000
57.2000,61.7000
58.4000,61.7000
58.4000,63.3000
Z" /> 
<path style="fill:#FFFFFF; fill-opacity:1.0000; stroke:none;fill-rule:evenodd;"
d="M 60.2000,63.3000
60.2000,61.7000
61.4000,61.7000
61.4000,63.3000
Z" /> 
<path style="fill:#FFFFFF; fill-opacity:1.0000; stroke:none;fill-rule:evenodd;"
d="M 44.2000,63.3000
44.2000,61.7000
45.4000,61.7000
45.4000,63.3000
Z" /> 
<path style="fill:#FFFFFF; fill-opacity:1.0000; stroke:none;fill-rule:evenodd;"
d="M 41.2000,63.3000
41.2000,61.7000
42.4000,61.7000
42.4000,63.3000
Z" /> 
<path style="fill:#FFFFFF; fill-opacity:1.0000; stroke:none;fill-rule:evenodd;"
d="M 27.7000,63.3000
27.7000,61.7000
28.9000,61.7000
28.9000,63.3000
Z" /> 
<path style="fill:#FFFFFF; fill-opacity:1.0000; stroke:none;fill-rule:evenodd;"
d="M 24.7000,63.3000
24.7000,61.7000
25.9000,61.7000
25.9000,63.3000
Z" /> 
<path style="fill:#FFFFFF; fill-opacity:1.0000; stroke:none;fill-rule:evenodd;"
d="M 43.2600,37.5100
43.2600,36.0100
46.2600,36.0100
46.2600,37.5100
Z" /> 
<path style="fill:#FFFFFF; fill-opacity:1.0000; stroke:none;fill-rule:evenodd;"
d="M 46.5600,40.0500
46.5600,38.5500
49.5600,38.5500
49.5600,40.0500
Z" /> 
<path style="fill:#FFFFFF; fill-opacity:1.0000; stroke:none;fill-rule:evenodd;"
d="M 43.2600,42.5900
43.2600,41.0900
46.2600,41.0900
46.2600,42.5900
Z" /> 
<path style="fill:#FFFFFF; fill-opacity:1.0000; stroke:none;fill-rule:evenodd;"
d="M 46.5600,45.1300
46.5600,43.6300
49.5600,43.6300
49.5600,45.1300
Z" /> 
<path style="fill:#FFFFFF; fill-opacity:1.0000; stroke:none;fill-rule:evenodd;"
d="M 43.2600,47.6700
43.2600,46.1700
46.2600,46.1700
46.2600,47.6700
Z" /> 
<path style="fill:#FFFFFF; fill-opacity:1.0000; stroke:none;fill-rule:evenodd;"
d="M 46.5600,50.2100
46.5600,48.7100
49.5600,48.7100
49.5600,50.2100
Z" /> 
<path style="fill:#FFFFFF; fill-opacity:1.0000; stroke:none;fill-rule:evenodd;"
d="M 43.2600,52.7500
43.2600,51.2500
46.2600,51.2500
46.2600,52.7500
Z" /> 
<path style="fill:#FFFFFF; fill-opacity:1.0000; stroke:none;fill-rule:evenodd;"
d="M 61.8000,52.7500
61.8000,51.2500
64.8000,51.2500
64.8000,52.7500
Z" /> 
<path style="fill:#FFFFFF; fill-opacity:1.0000; stroke:none;fill-rule:evenodd;"
d="M 58.5000,50.2100
58.5000,48.7100
61.5000,48.7100
61.5000,50.2100
Z" /> 
<path style="fill:#FFFFFF; fill-opacity:1.0000; stroke:none;fill-rule:evenodd;"
d="M 61.8000,47.6700
61.8000,46.1700
64.8000,46.1700
64.8000,47.6700
Z" /> 
<path style="fill:#FFFFFF; fill-opacity:1.0000; stroke:none;fill-rule:evenodd;"
d="M 58.5000,45.1300
58.5000,43.6300
61.5000,43.6300
61.5000,45.1300
Z" /> 
<path style="fill:#FFFFFF; fill-opacity:1.0000; stroke:none;fill-rule:evenodd;"
d="M 61.8000,42.5900
61.8000,41.0900
64.8000,41.0900
64.8000,42.5900
Z" /> 
<path style="fill:#FFFFFF; fill-opacity:1.0000; stroke:none;fill-rule:evenodd;"
d="M 58.5000,40.0500
58.5000,38.5500
61.5000,38.5500
61.5000,40.0500
Z" /> 
<path style="fill:#FFFFFF; fill-opacity:1.0000; stroke:none;fill-rule:evenodd;"
d="M 61.8000,37.5100
61.8000,36.0100
64.8000,36.0100
64.8000,37.5100
Z" /> 
<path style="fill:#FFFFFF; fill-opacity:1.0000; stroke:none;fill-rule:evenodd;"
d="M 97.4000,62.8500
97.4000,61.1500
98.8000,61.1500
98.8000,62.8500
Z" /> 
<path style="fill:#FFFFFF; fill-opacity:1.0000; stroke:none;fill-rule:evenodd;"
d="M 100.8000,62.8500
100.8000,61.1500
102.2000,61.1500
102.2000,62.8500
Z" /> 
<path style="fill:#FFFFFF; fill-opacity:1.0000; stroke:none;fill-rule:evenodd;"
d="M 80.4000,62.8500
80.4000,61.1500
81.8000,61.1500
81.8000,62.8500
Z" /> 
<path style="fill:#FFFFFF; fill-opacity:1.0000; stroke:none;fill-rule:evenodd;"
d="M 83.8000,62.8500
83.8000,61.1500
85.2000,61.1500
85.2000,62.8500
Z" /> 
<path style="fill:#FFFFFF; fill-opacity:1.0000; stroke:none;fill-rule:evenodd;"
d="M 64.9000,63.3500
64.9000,61.6500
66.3000,61.6500
66.3000,63.3500
Z" /> 
<path style="fill:#FFFFFF; fill-opacity:1.0000; stroke:none;fill-rule:evenodd;"
d="M 68.3000,63.3500
68.3000,61.6500
69.7000,61.6500
69.7000,63.3500
Z" /> 
<path style="fill:#FFFFFF; fill-opacity:1.0000; stroke:none;fill-rule:evenodd;"
d="M 47.9000,63.3500
47.9000,61.6500
49.3000,61.6500
49.3000,63.3500
Z" /> 
<path style="fill:#FFFFFF; fill-opacity:1.0000; stroke:none;fill-rule:evenodd;"
d="M 51.3000,63.3500
51.3000,61.6500
52.7000,61.6500
52.7000,63.3500
Z" /> 
<path style="fill:#FFFFFF; fill-opacity:1.0000; stroke:none;fill-rule:evenodd;"
d="M 35.3000,63.3500
35.3000,61.6500
36.7000,61.6500
36.7000,63.3500
Z" /> 
<path style="fill:#FFFFFF; fill-opacity:1.0000; stroke:none;fill-rule:evenodd;"
d="M 31.9000,63.3500
31.9000,61.6500
33.3000,61.6500
33.3000,63.3500
Z" /> 
</g>
<g style="fill:none; 
stroke:#FFFFFF; stroke-width:0.6000; stroke-opacity:1; 
stroke-linecap:round; stroke-linejoin:round;">
<path d="M85.9900 44.1900
L85.9900 46.2300
" />
<path d="M84.3000 42.5000
L85.9900 44.1900
" />
<path d="M76.3000 42.5000
L84.3000 42.5000
" />
<path d="M64.8000 54.0000
L76.3000 42.5000
" />
<path d="M49.7200 46.9200
L56.8000 54.0000
" />
<path d="M44.7600 46.9200
L49.7200 46.9200
" />
<path d="M56.8000 54.0000
L64.8000 54.0000
" />
<path d="M81.3700 45.0000
L82.6800 43.6900
" />
<path d="M66.8000 55.0000
L76.8000 45.0000
" />
<path d="M54.8000 55.0000
L66.8000 55.0000
" />
<path d="M76.8000 45.0000
L81.3700 45.0000
" />
<path d="M48.0600 49.4600
L49.2600 49.4600
" />
<path d="M49.2600 49.4600
L54.8000 55.0000
" />
<path d="M76.1400 39.3000
L77.9900 41.1500
" />
<path d="M77.9900 41.1500
L85.9900 41.1500
" />
<path d="M85.8000 37.5000
L85.8000 41.1500
" />
<path d="M81.8000 33.5000
L85.8000 37.5000
" />
<path d="M48.0300 24.7300
L56.8000 33.5000
" />
<path d="M56.8000 33.5000
L81.8000 33.5000
" />
<path d="M35.4550 24.7300
L48.0300 24.7300
" />
<path d="M78.0600 36.7600
L63.3000 36.7600
" />
<path d="M79.9100 38.6100
L78.0600 36.7600
" />
<path d="M82.6800 38.6100
L79.9100 38.6100
" />
<path d="M38.8000 53.5000
L38.8000 52.0000
" />
<path d="M38.8000 52.0000
L44.7600 52.0000
" />
<path d="M32.3000 52.0000
L38.8000 52.0000
" />
<path d="M60.0000 39.3000
L76.1400 39.3000
" />
<path d="M85.8300 40.9900
L85.9900 41.1500
" />
<path d="M98.1000 62.0000
L93.7000 66.4000
" />
<path d="M75.8000 66.4000
L61.7000 66.4000
" />
<path d="M76.7000 66.4000
L75.8000 66.4000
" />
<path d="M93.7000 66.4000
L75.8000 66.4000
" />
<path d="M101.3000 61.8000
L101.5000 62.0000
" />
<path d="M100.8000 59.0000
L101.3000 59.5000
" />
<path d="M93.8000 59.0000
L100.8000 59.0000
" />
<path d="M101.3000 59.5000
L101.3000 61.8000
" />
<path d="M93.3000 59.5000
L93.8000 59.0000
" />
<path d="M93.3000 62.0000
L93.3000 59.5000
" />
<path d="M81.1000 62.0000
L76.7000 66.4000
" />
<path d="M84.5000 60.7000
L84.5000 62.0000
" />
<path d="M76.8000 60.0000
L77.8000 59.0000
" />
<path d="M82.8000 59.0000
L84.5000 60.7000
" />
<path d="M77.8000 59.0000
L82.8000 59.0000
" />
<path d="M76.8000 62.0000
L76.8000 60.0000
" />
<path d="M41.3000 56.0000
L38.8000 53.5000
" />
<path d="M84.3000 56.0000
L41.3000 56.0000
" />
<path d="M90.3000 62.0000
L84.3000 56.0000
" />
<path d="M35.5700 49.5000
L35.6100 49.4600
" />
<path d="M29.3000 50.0000
L29.8000 49.5000
" />
<path d="M29.8000 49.5000
L35.5700 49.5000
" />
<path d="M40.8000 57.5000
L38.3000 55.0000
" />
<path d="M67.8000 57.5000
L40.8000 57.5000
" />
<path d="M38.3000 55.0000
L29.3000 55.0000
" />
<path d="M72.3000 62.0000
L67.8000 57.5000
" />
<path d="M29.3000 55.0000
L29.3000 50.0000
" />
<path d="M73.8000 62.0000
L72.3000 62.0000
" />
<path d="M61.7000 66.4000
L44.7000 66.4000
" />
<path d="M65.6000 62.5000
L61.7000 66.4000
" />
<path d="M48.6000 62.5000
L44.7000 66.4000
" />
<path d="M44.7000 66.4000
L44.6000 66.5000
" />
<path d="M68.3000 60.0000
L69.0000 60.7000
" />
<path d="M69.0000 60.7000
L69.0000 62.5000
" />
<path d="M61.3000 60.0000
L68.3000 60.0000
" />
<path d="M60.8000 60.5000
L61.3000 60.0000
" />
<path d="M60.8000 62.5000
L60.8000 60.5000
" />
<path d="M51.3000 60.5000
L45.8000 60.5000
" />
<path d="M44.8000 61.5000
L44.8000 62.5000
" />
<path d="M52.0000 61.2000
L51.3000 60.5000
" />
<path d="M45.8000 60.5000
L44.8000 61.5000
" />
<path d="M52.0000 62.5000
L52.0000 61.2000
" />
<path d="M54.3000 59.0000
L57.8000 62.5000
" />
<path d="M27.8000 56.5000
L37.3000 56.5000
" />
<path d="M37.3000 56.5000
L39.8000 59.0000
" />
<path d="M27.8000 47.5000
L27.8000 56.5000
" />
<path d="M28.3800 46.9200
L27.8000 47.5000
" />
<path d="M39.8000 59.0000
L54.3000 59.0000
" />
<path d="M32.3000 46.9200
L28.3800 46.9200
" />
<path d="M44.6000 66.5000
L28.6000 66.5000
" />
<path d="M26.3000 46.0000
L27.9200 44.3800
" />
<path d="M26.3000 58.0000
L26.3000 46.0000
" />
<path d="M36.3000 58.0000
L26.3000 58.0000
" />
<path d="M27.9200 44.3800
L35.6100 44.3800
" />
<path d="M37.8000 59.5000
L36.3000 58.0000
" />
<path d="M37.8000 61.5000
L37.8000 59.5000
" />
<path d="M41.8000 62.5000
L38.8000 62.5000
" />
<path d="M38.8000 62.5000
L37.8000 61.5000
" />
<path d="M28.4600 41.8400
L32.3000 41.8400
" />
<path d="M24.8000 45.5000
L28.4600 41.8400
" />
<path d="M24.8000 62.0000
L24.8000 45.5000
" />
<path d="M25.3000 62.5000
L24.8000 62.0000
" />
<path d="M28.3000 61.0000
L28.3000 62.5000
" />
<path d="M35.3000 60.0000
L29.3000 60.0000
" />
<path d="M36.0000 60.7000
L35.3000 60.0000
" />
<path d="M36.0000 62.5000
L36.0000 60.7000
" />
<path d="M29.3000 60.0000
L28.3000 61.0000
" />
<path d="M22.8000 45.0000
L28.5000 39.3000
" />
<path d="M22.8000 65.0000
L22.8000 45.0000
" />
<path d="M24.3000 66.5000
L22.8000 65.0000
" />
<path d="M28.6000 66.5000
L24.3000 66.5000
" />
<path d="M28.5000 39.3000
L35.6100 39.3000
" />
<path d="M32.6000 62.5000
L28.6000 66.5000
" />
<path d="M43.3000 44.5000
L47.9400 44.5000
" />
<path d="M38.3400 49.4600
L43.3000 44.5000
" />
<path d="M35.6100 49.4600
L38.3400 49.4600
" />
<path d="M47.9400 44.5000
L48.0600 44.3800
" />
<path d="M43.9600 41.8400
L44.7600 41.8400
" />
<path d="M38.8800 46.9200
L43.9600 41.8400
" />
<path d="M32.3000 46.9200
L38.8800 46.9200
" />
<path d="M43.0000 39.3000
L48.0600 39.3000
" />
<path d="M35.6100 44.3800
L37.9200 44.3800
" />
<path d="M37.9200 44.3800
L43.0000 39.3000
" />
<path d="M42.0400 36.7600
L44.7600 36.7600
" />
<path d="M36.9600 41.8400
L42.0400 36.7600
" />
<path d="M32.3000 41.8400
L36.9600 41.8400
" />
<path d="M54.1000 39.3000
L60.0000 39.3000
" />
<path d="M48.8000 34.0000
L54.1000 39.3000
" />
<path d="M41.8000 34.0000
L48.8000 34.0000
" />
<path d="M35.6100 39.3000
L36.5000 39.3000
" />
<path d="M36.5000 39.3000
L41.8000 34.0000
" />
<path d="M37.8000 31.2600
L37.8000 27.2700
" />
<path d="M37.8000 27.2700
L32.1450 27.2700
" />
<path d="M46.5700 27.2700
L37.8000 27.2700
" />
<path d="M32.3000 36.7600
L37.8000 31.2600
" />
<path d="M56.0600 36.7600
L46.5700 27.2700
" />
<path d="M63.3000 36.7600
L56.0600 36.7600
" />
</g> 
</svg>
